<svg width="281" height="279" viewBox="0 0 281 279" fill="none" xmlns="http://www.w3.org/2000/svg">
<rect x="3.5" y="3.5" width="273.167" height="272" stroke="#E41F43" stroke-width="7"/>
<path d="M55.6712 103.011C55.2478 102.713 54.6696 102.463 54.4102 102.35C54.397 102.344 54.3846 102.339 54.3732 102.334C53.9688 102.158 53.4472 101.943 52.8424 101.7C51.6277 101.212 49.9859 100.575 48.0799 99.8427C46.1979 99.12 44.0011 98.2836 41.6733 97.3973C39.3356 96.5073 36.8657 95.5669 34.4496 94.6408C34.2548 94.5661 34.0601 94.4915 33.8657 94.4168C42.7622 95.1675 52.0322 96.0558 55.5375 96.3962C57.5911 96.5956 59.4961 95.8085 60.839 94.4721C61.9517 93.3647 63.884 91.5378 66.0912 89.8552C68.3757 88.1136 70.618 86.7902 72.3799 86.3354C78.0379 84.8748 82.9867 85.1643 87.7358 86.3433C87.7219 86.3398 87.7291 86.3434 87.759 86.3582C87.8747 86.4155 88.3296 86.6408 89.2075 87.2752C90.1859 87.9822 91.393 88.9746 92.7795 90.1982C95.5465 92.6401 98.8202 95.8176 102.065 99.0365C103.395 100.356 104.731 101.693 106.017 102.981C107.824 104.79 109.535 106.503 111 107.936C112.261 109.17 113.4 110.256 114.319 111.07C114.776 111.475 115.222 111.851 115.628 112.156C115.911 112.369 116.569 112.861 117.355 113.111C118.326 113.42 119.151 113.232 119.405 113.17C119.765 113.083 120.068 112.959 120.27 112.869C120.683 112.684 121.1 112.443 121.471 112.213C122.235 111.74 123.198 111.066 124.293 110.262C126.5 108.641 129.496 106.303 133.012 103.504C136.809 100.481 141.288 96.8618 146.115 92.9608C150.207 89.6542 154.549 86.1454 158.938 82.6269C168.549 74.9216 178.457 67.1103 186.782 61.0001C190.947 57.9431 194.676 55.3418 197.749 53.4018C200.935 51.3907 203.086 50.3071 204.209 49.9932C210.306 48.2889 221.21 47.9263 230.73 48.5502C235.442 48.8591 239.594 49.396 242.44 50.0547C242.599 50.0916 242.752 50.1283 242.898 50.1647C242.484 50.6498 242.012 51.1931 241.483 51.7927C239.164 54.4204 235.879 57.9919 231.933 62.2133C226.032 68.5266 218.71 76.2338 211.036 84.3105C208.452 87.0302 205.829 89.7919 203.206 92.5563C192.809 103.515 182.43 114.516 174.685 123.052C170.818 127.314 167.572 131.001 165.299 133.778C164.17 135.157 163.229 136.374 162.565 137.356C162.238 137.839 161.92 138.35 161.678 138.846C161.557 139.093 161.416 139.413 161.31 139.777C161.219 140.091 161.064 140.73 161.174 141.505C161.299 142.387 161.734 143.131 161.891 143.4L161.898 143.413C162.142 143.831 162.45 144.288 162.783 144.754C163.456 145.696 164.386 146.888 165.507 148.267C167.756 151.035 170.911 154.722 174.641 158.991C182.109 167.536 191.984 178.528 201.774 189.399C203.038 190.803 204.301 192.205 205.557 193.599C214.039 203.015 222.216 212.091 228.468 219.163C231.423 222.507 233.931 225.383 235.831 227.625C233.651 227.54 231.09 227.363 228.436 227.094C224.932 226.738 221.343 226.229 218.31 225.582C215.115 224.901 213.047 224.166 212.183 223.588C211.024 222.812 208.607 220.601 205.173 217.293C203.854 216.022 202.4 214.605 200.863 213.107C198.59 210.892 196.137 208.501 193.675 206.15C189.517 202.179 185.166 198.155 181.182 194.868C177.309 191.671 173.418 188.855 170.246 187.662C168.622 187.05 166.472 186.595 164.122 186.205C161.72 185.805 158.877 185.437 155.763 185.056C154.749 184.932 153.704 184.806 152.631 184.677C147.066 184.007 140.75 183.246 134.171 182.169C118.312 179.575 101.827 175.264 91.5925 166.744C81.2258 158.114 72.9169 143.121 66.9525 129.713C64.0016 123.079 61.6815 116.968 60.0028 112.424C59.7147 111.644 59.4424 110.902 59.188 110.208C58.71 108.905 58.2948 107.774 57.9558 106.886C57.6965 106.206 57.4533 105.594 57.2386 105.115C57.1336 104.882 57.0047 104.61 56.8574 104.353C56.7839 104.224 56.6757 104.046 56.5335 103.856C56.4215 103.706 56.1368 103.339 55.6712 103.011ZM245.325 50.9994C245.325 50.9995 245.32 50.9963 245.31 50.9895C245.32 50.9959 245.325 50.9993 245.325 50.9994Z" stroke="#E41F43" stroke-width="7"/>
</svg>
