<svg width="340" height="340" viewBox="0 0 340 340" fill="none" xmlns="http://www.w3.org/2000/svg">
<path fill-rule="evenodd" clip-rule="evenodd" d="M0 0H340V340H0V0ZM131.769 77.8431L131.769 77.843L131.768 77.8429C122.391 74.2577 110.294 69.6328 110.571 69.103C110.959 68.3619 137.327 70.8781 143.93 71.5204C144.866 71.6115 145.789 71.2602 146.459 70.5992C148.469 68.6136 153.023 64.4613 156.864 63.466C161.959 62.1452 166.44 62.4147 170.657 63.466C173.206 64.1015 180.755 71.6905 186.767 77.7338L186.767 77.7338C190.699 81.6868 193.973 84.9783 194.76 85.2299C195.526 85.4749 204.267 78.3816 215.343 69.3932C233.025 55.0441 256.658 35.8652 263.303 34.0002C274.109 30.9668 300.112 32.9459 299.411 36.1087C299.105 37.491 286.115 51.2202 271.629 66.532L271.627 66.5339L271.625 66.5361L271.624 66.5366L271.624 66.537C252.965 86.2592 231.823 108.605 232.101 110.572C232.364 112.433 250.51 132.661 267.254 151.325C281.969 167.729 295.601 182.925 295.06 183.386C293.902 184.369 273.711 183.122 268.935 179.911C267.257 178.782 263.67 175.272 259.363 171.057C251.415 163.278 241.014 153.099 235.636 151.066C233.23 150.157 228.3 149.561 222.079 148.809H222.079C206.867 146.969 183.934 144.197 171.285 133.623C157.135 121.793 147.984 96.745 144.252 86.5291C143.284 83.8785 142.68 82.2264 142.449 82.0627C142.028 81.7651 137.386 79.9907 131.769 77.8431ZM153.618 195.946V258.822H177.086C183.403 258.822 188.893 257.523 193.557 254.925C198.281 252.328 201.941 248.667 204.539 243.944C207.136 239.221 208.435 233.671 208.435 227.295C208.435 221.51 207.254 216.255 204.893 211.532C202.531 206.75 199.019 202.971 194.354 200.197C189.749 197.363 183.993 195.946 177.086 195.946H153.618ZM191.698 217.642C192.997 220.417 193.646 223.635 193.646 227.295C193.646 230.838 192.997 234.055 191.698 236.948C190.399 239.782 188.51 242.025 186.03 243.679C183.609 245.273 180.628 246.07 177.086 246.07H168.141V208.698H177.086C180.569 208.698 183.55 209.495 186.03 211.089C188.51 212.624 190.399 214.809 191.698 217.642ZM137.71 246.07V258.822H93.5192V195.946H136.913V208.698H108.043V220.919H132.839V232.697H108.043V246.07H137.71ZM27.1073 195.946V258.822H41.6308V238.542H51.4608L63.5047 258.822H79.5337L65.7186 235.443C67.844 234.262 69.6742 232.756 71.2092 230.926C72.7442 229.037 73.925 226.941 74.7516 224.639C75.5781 222.277 75.9914 219.797 75.9914 217.2C75.9914 214.602 75.46 212.034 74.3973 209.495C73.3937 206.956 71.9768 204.683 70.1465 202.676C68.3163 200.61 66.1319 198.986 63.5932 197.805C61.1136 196.566 58.3978 195.946 55.4459 195.946H27.1073ZM54.9146 225.878H41.6308V208.698H54.4718C55.5935 208.698 56.6562 209.052 57.6599 209.761C58.6635 210.469 59.4901 211.473 60.1395 212.772C60.8479 214.012 61.2022 215.488 61.2022 217.2C61.2022 218.912 60.907 220.417 60.3166 221.716C59.7262 223.015 58.9587 224.048 58.0141 224.816C57.1285 225.524 56.0953 225.878 54.9146 225.878ZM268.288 292.436V307.845H262.063V280.898H266.997L279.484 296.763V280.898H285.709V307.845H280.623L268.288 292.436ZM236.491 306.934C238.136 307.693 239.97 308.073 241.994 308.073C243.943 308.073 245.727 307.706 247.346 306.972C248.991 306.213 250.42 305.201 251.635 303.936C252.849 302.646 253.785 301.191 254.443 299.571C255.101 297.952 255.43 296.244 255.43 294.448C255.43 292.752 255.114 291.095 254.481 289.476C253.849 287.831 252.938 286.351 251.749 285.035C250.585 283.719 249.18 282.682 247.536 281.923C245.916 281.139 244.107 280.746 242.108 280.746C240.16 280.746 238.364 281.113 236.719 281.847C235.074 282.581 233.645 283.593 232.43 284.883C231.241 286.149 230.305 287.591 229.622 289.21C228.964 290.829 228.635 292.537 228.635 294.334C228.635 296.08 228.951 297.775 229.584 299.42C230.216 301.039 231.114 302.506 232.278 303.822C233.468 305.113 234.872 306.15 236.491 306.934ZM235.429 297.446C235.125 296.459 234.973 295.447 234.973 294.41C234.973 293.398 235.112 292.411 235.391 291.449C235.694 290.463 236.137 289.59 236.719 288.831C237.326 288.046 238.06 287.426 238.92 286.971C239.806 286.515 240.843 286.288 242.032 286.288C243.146 286.288 244.145 286.503 245.031 286.933C245.916 287.363 246.663 287.97 247.27 288.755C247.877 289.514 248.333 290.374 248.636 291.335C248.94 292.297 249.092 293.296 249.092 294.334C249.092 295.346 248.94 296.345 248.636 297.332C248.358 298.294 247.928 299.167 247.346 299.951C246.764 300.735 246.03 301.368 245.145 301.849C244.259 302.304 243.222 302.532 242.032 302.532C240.894 302.532 239.882 302.304 238.996 301.849C238.111 301.393 237.364 300.786 236.757 300.027C236.175 299.268 235.732 298.407 235.429 297.446ZM215.777 307.845V280.898H222.002V307.845H215.777ZM201.503 286.363H209.7V280.898H187.042V286.363H195.278V307.845H201.503V286.363ZM169.982 280.898H176.7L185.961 307.845H179.584L177.497 301.811H169.109L167.06 307.845H160.684L169.982 280.898ZM176.472 297.522L173.322 287.16L170.096 297.522H176.472ZM147.013 300.558L140.674 280.898H134.07L143.938 307.845H150.049L159.841 280.898H153.275L147.013 300.558ZM117.771 308.073C115.747 308.073 113.913 307.693 112.268 306.934C110.649 306.15 109.245 305.113 108.055 303.822C106.891 302.506 105.993 301.039 105.361 299.42C104.728 297.775 104.412 296.08 104.412 294.334C104.412 292.537 104.741 290.829 105.399 289.21C106.082 287.591 107.018 286.149 108.207 284.883C109.422 283.593 110.851 282.581 112.496 281.847C114.141 281.113 115.937 280.746 117.885 280.746C119.884 280.746 121.693 281.139 123.313 281.923C124.957 282.682 126.362 283.719 127.526 285.035C128.715 286.351 129.626 287.831 130.258 289.476C130.891 291.095 131.207 292.752 131.207 294.448C131.207 296.244 130.878 297.952 130.22 299.571C129.562 301.191 128.626 302.646 127.412 303.936C126.197 305.201 124.768 306.213 123.123 306.972C121.504 307.706 119.72 308.073 117.771 308.073ZM110.75 294.41C110.75 295.447 110.902 296.459 111.205 297.446C111.509 298.407 111.952 299.268 112.534 300.027C113.141 300.786 113.888 301.393 114.773 301.849C115.659 302.304 116.671 302.532 117.809 302.532C118.999 302.532 120.036 302.304 120.922 301.849C121.807 301.368 122.541 300.735 123.123 299.951C123.705 299.167 124.135 298.294 124.413 297.332C124.717 296.345 124.869 295.346 124.869 294.334C124.869 293.296 124.717 292.297 124.413 291.335C124.11 290.374 123.654 289.514 123.047 288.755C122.44 287.97 121.693 287.363 120.808 286.933C119.922 286.503 118.923 286.288 117.809 286.288C116.62 286.288 115.583 286.515 114.697 286.971C113.837 287.426 113.103 288.046 112.496 288.831C111.914 289.59 111.471 290.463 111.168 291.449C110.889 292.411 110.75 293.398 110.75 294.41ZM80.3574 307.845V292.436L92.6923 307.845H97.7781V280.898H91.5537V296.763L79.067 280.898H74.1331V307.845H80.3574ZM48.5226 292.436V307.845H42.2983V280.898H47.2322L59.7189 296.763V280.898H65.9433V307.845H60.8575L48.5226 292.436ZM27.8832 280.898V307.845H34.1076V280.898H27.8832Z" fill="#E41F43"/>
</svg>
