<svg xmlns="http://www.w3.org/2000/svg" fill="none" viewBox="0 0 128 128">
    <path d="M16.9564 26.8088C16.3616 26.3882 -0.154761 20.3962 0.0801703 19.9477C0.274002 19.5777 12.7053 20.7419 17.0488 21.1606C17.9852 21.2508 18.8995 20.8959 19.586 20.2526C20.7949 19.1198 22.8323 17.4185 24.5878 16.9634C27.2854 16.2642 29.6575 16.4069 31.8901 16.9634C34.1226 17.52 43.5973 28.1487 44.6506 28.4855C45.704 28.8223 75.217 2.96976 80.938 1.36388C86.6589 -0.241997 100.425 0.805757 100.054 2.48017C99.6831 4.15458 64.1583 40.0516 64.4195 41.9021C64.6808 43.7525 98.3636 79.9294 97.7505 80.4503C97.1374 80.9712 86.4482 80.3107 83.9201 78.6108C81.392 76.9108 70.6808 64.9992 66.2911 63.3402C61.9014 61.6812 41.6575 61.9924 32.2227 54.1051C22.7878 46.2179 17.5512 27.2294 16.9564 26.8088Z" />
    <style>
        path { fill: #E41F43; }
        @media (prefers-color-scheme: dark) {
            path { fill: #E41F43; }
        }
    </style>
</svg>
